<?xml version="1.0" standalone="no"?>
<!DOCTYPE svg PUBLIC "-//W3C//DTD SVG 20010904//EN"
 "http://www.w3.org/TR/2001/REC-SVG-20010904/DTD/svg10.dtd">
<svg version="1.0" xmlns="http://www.w3.org/2000/svg"
 width="541.000000pt" height="387.000000pt" viewBox="0 0 541.000000 387.000000"
 preserveAspectRatio="xMidYMid meet">

<g transform="translate(0.000000,387.000000) scale(0.100000,-0.100000)"
fill="#000000" stroke="none">
<path d="M2612 3513 c-60 -21 -146 -103 -179 -171 -37 -75 -39 -188 -5 -273
25 -63 88 -134 151 -170 l43 -24 -1 -794 -1 -795 -50 -13 c-120 -31 -240 -116
-307 -220 -18 -29 -45 -89 -60 -133 l-26 -80 -138 0 -138 0 -3 278 c-3 256 -5
280 -23 311 -35 60 -71 71 -225 71 l-135 0 -18 48 c-23 65 -86 135 -150 166
-162 77 -354 10 -434 -152 -24 -50 -28 -69 -28 -147 0 -71 5 -100 21 -135 75
-159 261 -239 419 -179 75 28 158 107 176 167 l12 42 89 0 88 0 0 -268 c0
-258 1 -269 23 -312 38 -76 63 -84 276 -90 l184 -5 17 -61 c51 -188 187 -332
365 -386 80 -25 235 -29 319 -9 189 45 362 220 406 409 l12 52 166 0 c186 0
226 7 265 47 53 56 57 80 57 356 l0 254 38 7 c20 3 58 6 83 6 47 0 47 0 73
-55 30 -60 85 -113 155 -147 37 -18 63 -23 131 -23 78 0 90 3 148 34 71 39
110 79 149 154 24 45 28 63 28 142 0 76 -4 97 -24 135 -54 101 -119 157 -215
185 -152 44 -333 -44 -384 -187 l-17 -48 -133 0 c-140 0 -168 -7 -207 -50 -19
-21 -20 -40 -25 -314 l-5 -291 -142 -3 -141 -3 -17 58 c-53 184 -203 330 -387
377 l-53 13 -3 790 -2 790 51 23 c71 34 125 90 162 168 25 54 31 78 31 142 1
66 -3 84 -32 142 -62 126 -166 189 -310 187 -42 0 -96 -7 -120 -16z m187 -191
c65 -33 92 -133 52 -198 -79 -129 -283 -33 -241 114 13 46 27 64 65 85 39 21
82 21 124 -1z m-1535 -1776 c48 -20 77 -66 78 -123 2 -90 -48 -143 -132 -143
-105 0 -167 105 -118 199 37 71 102 96 172 67z m3055 -4 c62 -31 90 -126 56
-192 -24 -47 -62 -70 -116 -70 -83 0 -137 66 -126 156 5 48 24 76 72 105 38
24 70 24 114 1z m-1464 -477 c240 -74 314 -400 133 -584 -51 -51 -96 -76 -180
-97 -158 -41 -318 37 -394 192 -26 53 -29 68 -29 159 1 81 5 109 22 147 43 93
139 172 240 198 48 12 144 5 208 -15z"/>
<path d="M1480 2838 c-74 -29 -159 -114 -184 -185 -46 -133 -10 -280 90 -372
99 -91 227 -111 350 -56 l51 23 166 -167 166 -166 3 -288 3 -289 33 -29 c36
-32 77 -37 121 -15 48 26 51 44 51 368 0 301 0 301 -24 342 -13 23 -107 120
-208 216 l-183 176 13 49 c18 69 10 169 -18 228 -29 61 -96 128 -157 158 -69
34 -196 37 -273 7z m189 -186 c89 -45 93 -191 7 -243 -63 -38 -153 -13 -188
52 -65 122 59 254 181 191z"/>
<path d="M3735 2844 c-97 -41 -180 -130 -204 -219 -14 -50 -14 -126 0 -184
l10 -45 -201 -195 -201 -196 1 -337 0 -336 31 -26 c42 -35 96 -35 138 0 l31
26 0 285 0 286 173 168 172 168 40 -19 c79 -37 195 -35 280 6 61 29 123 92
156 159 30 61 31 69 27 152 -5 105 -32 167 -101 230 -74 68 -119 86 -222 90
-67 2 -100 -1 -130 -13z m179 -188 c18 -7 43 -30 56 -50 18 -31 22 -47 18 -93
-4 -49 -10 -61 -41 -90 -31 -27 -44 -33 -83 -33 -60 0 -99 24 -125 78 -34 70
-13 142 54 182 38 23 75 25 121 6z"/>
</g>
</svg>
